<svg width="177" height="168" viewBox="0 0 177 168" fill="none" xmlns="http://www.w3.org/2000/svg">
<path d="M67.85 26.9983C67.85 34.1587 65.0528 41.0258 60.0737 46.0889C55.0946 51.1521 48.3415 53.9965 41.3 53.9965C34.2585 53.9965 27.5054 51.1521 22.5263 46.0889C17.5472 41.0258 14.75 34.1587 14.75 26.9983C14.75 19.8379 17.5472 12.9708 22.5263 7.90761C27.5054 2.84445 34.2585 0 41.3 0C48.3415 0 55.0946 2.84445 60.0737 7.90761C65.0528 12.9708 67.85 19.8379 67.85 26.9983ZM11.8 59.9962C8.67045 59.9962 5.66907 61.2604 3.45614 63.5106C1.24321 65.7609 0 68.813 0 71.9954V125.992C-1.14294e-07 131.507 1.06826 136.968 3.14377 142.064C5.21929 147.159 8.26143 151.789 12.0965 155.688C15.9316 159.588 20.4844 162.682 25.4952 164.792C30.5059 166.903 35.8764 167.989 41.3 167.989C46.7236 167.989 52.0941 166.903 57.1048 164.792C62.1156 162.682 66.6684 159.588 70.5035 155.688C74.3386 151.789 77.3807 147.159 79.4562 142.064C81.5317 136.968 82.6 131.507 82.6 125.992V71.9954C82.6 68.813 81.3568 65.7609 79.1439 63.5106C76.9309 61.2604 73.9296 59.9962 70.8 59.9962H11.8ZM79.65 26.9983C79.65 34.7978 77.408 42.0573 73.514 48.1529C78.3874 48.7289 82.8006 50.7927 86.3052 53.9125C90.5668 54.2707 94.8504 53.5769 98.7917 51.89C102.733 50.2032 106.215 47.5732 108.942 44.2239C111.669 40.8746 113.56 36.905 114.455 32.6529C115.349 28.4007 115.22 23.9918 114.079 19.8012C112.938 15.6106 110.818 11.7622 107.901 8.58352C104.983 5.40481 101.353 2.98982 97.3202 1.54395C93.2874 0.0980943 88.9708 -0.335846 84.7377 0.279049C80.5045 0.893944 76.4801 2.53948 73.0066 5.07568C77.1956 11.3153 79.65 18.8748 79.65 26.9983ZM76.7 166.249C82.2763 161.189 86.7363 154.985 89.787 148.047C92.8376 141.109 94.4097 133.592 94.4 125.992V71.9954C94.4 67.6277 93.2436 63.5239 91.2376 59.9962H118C121.13 59.9962 124.131 61.2604 126.344 63.5106C128.557 65.7609 129.8 68.813 129.8 71.9954V125.992C129.802 132.534 128.3 138.986 125.416 144.833C122.531 150.681 118.343 155.762 113.186 159.672C108.028 163.582 102.043 166.213 95.7089 167.355C89.3744 168.497 82.8651 168.118 76.7 166.249ZM126.85 26.9983C126.85 34.7978 124.608 42.0573 120.714 48.1529C125.587 48.7289 130.001 50.7927 133.505 53.9125C137.767 54.2707 142.05 53.5769 145.992 51.89C149.933 50.2032 153.415 47.5732 156.142 44.2239C158.869 40.8746 160.76 36.905 161.655 32.6529C162.549 28.4007 162.42 23.9918 161.279 19.8012C160.138 15.6106 158.018 11.7622 155.101 8.58352C152.183 5.40481 148.553 2.98982 144.52 1.54395C140.487 0.0980943 136.171 -0.335846 131.938 0.279049C127.705 0.893944 123.68 2.53948 120.207 5.07568C124.396 11.3153 126.85 18.8748 126.85 26.9983ZM123.9 166.249C129.476 161.189 133.936 154.985 136.987 148.047C140.038 141.109 141.61 133.592 141.6 125.992V71.9954C141.6 67.6277 140.444 63.5239 138.438 59.9962H165.2C168.33 59.9962 171.331 61.2604 173.544 63.5106C175.757 65.7609 177 68.813 177 71.9954V125.992C177.002 132.534 175.5 138.986 172.616 144.833C169.731 150.681 165.543 155.762 160.386 159.672C155.228 163.582 149.243 166.213 142.909 167.355C136.574 168.497 130.065 168.118 123.9 166.249Z" fill="white"/>
</svg>
