<svg width="322" height="87" viewBox="0 0 322 87" fill="none" xmlns="http://www.w3.org/2000/svg">
<path d="M0 51C0 42.7157 6.71573 36 15 36H306.879C315.21 36 321.945 42.7897 321.878 51.121L321.62 83.121C321.554 91.3578 314.858 98 306.62 98H161L15.3726 101.618C6.945 101.827 0 95.0529 0 86.6227V51Z" fill="#CDAD59"/>
<path d="M187.6 66.22C187.6 66.6333 187.573 67.0067 187.52 67.34H179.1C179.167 68.22 179.493 68.9267 180.08 69.46C180.667 69.9933 181.387 70.26 182.24 70.26C183.467 70.26 184.333 69.7467 184.84 68.72H187.3C186.967 69.7333 186.36 70.5667 185.48 71.22C184.613 71.86 183.533 72.18 182.24 72.18C181.187 72.18 180.24 71.9467 179.4 71.48C178.573 71 177.92 70.3333 177.44 69.48C176.973 68.6133 176.74 67.6133 176.74 66.48C176.74 65.3467 176.967 64.3533 177.42 63.5C177.887 62.6333 178.533 61.9667 179.36 61.5C180.2 61.0333 181.16 60.8 182.24 60.8C183.28 60.8 184.207 61.0267 185.02 61.48C185.833 61.9333 186.467 62.5733 186.92 63.4C187.373 64.2133 187.6 65.1533 187.6 66.22ZM185.22 65.5C185.207 64.66 184.907 63.9867 184.32 63.48C183.733 62.9733 183.007 62.72 182.14 62.72C181.353 62.72 180.68 62.9733 180.12 63.48C179.56 63.9733 179.227 64.6467 179.12 65.5H185.22ZM199.564 62.24C199.564 62.9467 199.397 63.6133 199.064 64.24C198.73 64.8667 198.197 65.38 197.464 65.78C196.73 66.1667 195.79 66.36 194.644 66.36H192.124V72H189.844V58.1H194.644C195.71 58.1 196.61 58.2867 197.344 58.66C198.09 59.02 198.644 59.5133 199.004 60.14C199.377 60.7667 199.564 61.4667 199.564 62.24ZM194.644 64.5C195.51 64.5 196.157 64.3067 196.584 63.92C197.01 63.52 197.224 62.96 197.224 62.24C197.224 60.72 196.364 59.96 194.644 59.96H192.124V64.5H194.644ZM204.018 58.1V72H201.738V58.1H204.018ZM209.292 70.16H213.992V72H207.012V58.1H209.292V70.16ZM224.278 69.16H218.458L217.458 72H215.078L220.058 58.08H222.698L227.678 72H225.278L224.278 69.16ZM223.638 67.3L221.378 60.84L219.098 67.3H223.638ZM230.764 72.14C230.35 72.14 230.004 72 229.724 71.72C229.444 71.44 229.304 71.0933 229.304 70.68C229.304 70.2667 229.444 69.92 229.724 69.64C230.004 69.36 230.35 69.22 230.764 69.22C231.164 69.22 231.504 69.36 231.784 69.64C232.064 69.92 232.204 70.2667 232.204 70.68C232.204 71.0933 232.064 71.44 231.784 71.72C231.504 72 231.164 72.14 230.764 72.14ZM240.228 60.8C241.095 60.8 241.868 60.98 242.548 61.34C243.241 61.7 243.781 62.2333 244.168 62.94C244.555 63.6467 244.748 64.5 244.748 65.5V72H242.488V65.84C242.488 64.8533 242.241 64.1 241.748 63.58C241.255 63.0467 240.581 62.78 239.728 62.78C238.875 62.78 238.195 63.0467 237.688 63.58C237.195 64.1 236.948 64.8533 236.948 65.84V72H234.668V60.98H236.948V62.24C237.321 61.7867 237.795 61.4333 238.368 61.18C238.955 60.9267 239.575 60.8 240.228 60.8ZM257.756 66.22C257.756 66.6333 257.73 67.0067 257.676 67.34H249.256C249.323 68.22 249.65 68.9267 250.236 69.46C250.823 69.9933 251.543 70.26 252.396 70.26C253.623 70.26 254.49 69.7467 254.996 68.72H257.456C257.123 69.7333 256.516 70.5667 255.636 71.22C254.77 71.86 253.69 72.18 252.396 72.18C251.343 72.18 250.396 71.9467 249.556 71.48C248.73 71 248.076 70.3333 247.596 69.48C247.13 68.6133 246.896 67.6133 246.896 66.48C246.896 65.3467 247.123 64.3533 247.576 63.5C248.043 62.6333 248.69 61.9667 249.516 61.5C250.356 61.0333 251.316 60.8 252.396 60.8C253.436 60.8 254.363 61.0267 255.176 61.48C255.99 61.9333 256.623 62.5733 257.076 63.4C257.53 64.2133 257.756 65.1533 257.756 66.22ZM255.376 65.5C255.363 64.66 255.063 63.9867 254.476 63.48C253.89 62.9733 253.163 62.72 252.296 62.72C251.51 62.72 250.836 62.9733 250.276 63.48C249.716 63.9733 249.383 64.6467 249.276 65.5H255.376ZM264.72 66.42L268.28 72H265.7L263.32 68.26L261.08 72H258.7L262.26 66.58L258.7 60.98H261.28L263.66 64.72L265.9 60.98H268.28L264.72 66.42ZM279.96 60.98V72H277.68V70.7C277.32 71.1533 276.847 71.5133 276.26 71.78C275.687 72.0333 275.074 72.16 274.42 72.16C273.554 72.16 272.774 71.98 272.08 71.62C271.4 71.26 270.86 70.7267 270.46 70.02C270.074 69.3133 269.88 68.46 269.88 67.46V60.98H272.14V67.12C272.14 68.1067 272.387 68.8667 272.88 69.4C273.374 69.92 274.047 70.18 274.9 70.18C275.754 70.18 276.427 69.92 276.92 69.4C277.427 68.8667 277.68 68.1067 277.68 67.12V60.98H279.96ZM286.969 72.18C286.102 72.18 285.322 72.0267 284.629 71.72C283.949 71.4 283.409 70.9733 283.009 70.44C282.609 69.8933 282.395 69.2867 282.369 68.62H284.729C284.769 69.0867 284.989 69.48 285.389 69.8C285.802 70.1067 286.315 70.26 286.929 70.26C287.569 70.26 288.062 70.14 288.409 69.9C288.769 69.6467 288.949 69.3267 288.949 68.94C288.949 68.5267 288.749 68.22 288.349 68.02C287.962 67.82 287.342 67.6 286.489 67.36C285.662 67.1333 284.989 66.9133 284.469 66.7C283.949 66.4867 283.495 66.16 283.109 65.72C282.735 65.28 282.549 64.7 282.549 63.98C282.549 63.3933 282.722 62.86 283.069 62.38C283.415 61.8867 283.909 61.5 284.549 61.22C285.202 60.94 285.949 60.8 286.789 60.8C288.042 60.8 289.049 61.12 289.809 61.76C290.582 62.3867 290.995 63.2467 291.049 64.34H288.769C288.729 63.8467 288.529 63.4533 288.169 63.16C287.809 62.8667 287.322 62.72 286.709 62.72C286.109 62.72 285.649 62.8333 285.329 63.06C285.009 63.2867 284.849 63.5867 284.849 63.96C284.849 64.2533 284.955 64.5 285.169 64.7C285.382 64.9 285.642 65.06 285.949 65.18C286.255 65.2867 286.709 65.4267 287.309 65.6C288.109 65.8133 288.762 66.0333 289.269 66.26C289.789 66.4733 290.235 66.7933 290.609 67.22C290.982 67.6467 291.175 68.2133 291.189 68.92C291.189 69.5467 291.015 70.1067 290.669 70.6C290.322 71.0933 289.829 71.48 289.189 71.76C288.562 72.04 287.822 72.18 286.969 72.18Z" fill="#00275B"/>
<path d="M140.476 54H144.463L135.753 63.7437L146 77H137.977L131.693 68.9591L124.502 77H120.513L129.83 66.5777L120 54.0011H128.227L133.907 61.3507L140.476 54ZM139.078 74.6653H141.286L127.027 56.2127H124.656L139.078 74.6653Z" fill="#00275B"/>
<path d="M57.3514 63.7099C57.3514 56.1421 51.2246 50 43.6757 50C36.1267 50 30 56.1421 30 63.7099C30 70.3456 34.7044 75.8707 40.9405 77.1457V67.8229H38.2054V63.7099H40.9405V60.2825C40.9405 57.6364 43.0876 55.484 45.727 55.484H49.1459V59.597H46.4108C45.6586 59.597 45.0432 60.2139 45.0432 60.968V63.7099H49.1459V67.8229H45.0432V77.3513C51.9495 76.6659 57.3514 70.8254 57.3514 63.7099Z" fill="#00275B"/>
<path d="M83.2108 52H93.6541C97.6324 52 100.865 55.2324 100.865 59.2108V69.6541C100.865 71.5665 100.105 73.4006 98.7529 74.7529C97.4006 76.1052 95.5665 76.8649 93.6541 76.8649H83.2108C79.2324 76.8649 76 73.6324 76 69.6541V59.2108C76 57.2984 76.7597 55.4643 78.112 54.112C79.4643 52.7597 81.2984 52 83.2108 52ZM82.9622 54.4865C81.7751 54.4865 80.6367 54.958 79.7974 55.7974C78.958 56.6367 78.4865 57.7751 78.4865 58.9622V69.9027C78.4865 72.3768 80.4881 74.3784 82.9622 74.3784H93.9027C95.0897 74.3784 96.2281 73.9068 97.0675 73.0675C97.9068 72.2281 98.3784 71.0897 98.3784 69.9027V58.9622C98.3784 56.4881 96.3768 54.4865 93.9027 54.4865H82.9622ZM94.9595 56.3514C95.3716 56.3514 95.7669 56.5151 96.0583 56.8065C96.3498 57.098 96.5135 57.4932 96.5135 57.9054C96.5135 58.3176 96.3498 58.7128 96.0583 59.0043C95.7669 59.2957 95.3716 59.4595 94.9595 59.4595C94.5473 59.4595 94.152 59.2957 93.8606 59.0043C93.5691 58.7128 93.4054 58.3176 93.4054 57.9054C93.4054 57.4932 93.5691 57.098 93.8606 56.8065C94.152 56.5151 94.5473 56.3514 94.9595 56.3514ZM88.4324 58.2162C90.0811 58.2162 91.6622 58.8711 92.828 60.0369C93.9937 61.2027 94.6486 62.7838 94.6486 64.4324C94.6486 66.0811 93.9937 67.6622 92.828 68.828C91.6622 69.9937 90.0811 70.6486 88.4324 70.6486C86.7838 70.6486 85.2027 69.9937 84.0369 68.828C82.8711 67.6622 82.2162 66.0811 82.2162 64.4324C82.2162 62.7838 82.8711 61.2027 84.0369 60.0369C85.2027 58.8711 86.7838 58.2162 88.4324 58.2162ZM88.4324 60.7027C87.4432 60.7027 86.4946 61.0957 85.7951 61.7951C85.0957 62.4946 84.7027 63.4432 84.7027 64.4324C84.7027 65.4216 85.0957 66.3703 85.7951 67.0697C86.4946 67.7692 87.4432 68.1622 88.4324 68.1622C89.4216 68.1622 90.3703 67.7692 91.0697 67.0697C91.7692 66.3703 92.1622 65.4216 92.1622 64.4324C92.1622 63.4432 91.7692 62.4946 91.0697 61.7951C90.3703 61.0957 89.4216 60.7027 88.4324 60.7027Z" fill="#00275B"/>
<path d="M151.923 8.85924C151.923 9.03373 151.912 9.21549 151.89 9.40451H147.67C147.699 9.78257 147.819 10.0734 148.03 10.2769C148.248 10.4732 148.513 10.5714 148.826 10.5714C149.291 10.5714 149.614 10.3751 149.796 9.9825H151.781C151.679 10.3824 151.494 10.7422 151.225 11.0621C150.963 11.382 150.632 11.6329 150.232 11.8146C149.833 11.9964 149.385 12.0872 148.891 12.0872C148.295 12.0872 147.764 11.96 147.299 11.7056C146.834 11.4511 146.47 11.0876 146.208 10.615C145.947 10.1424 145.816 9.58991 145.816 8.95739C145.816 8.32488 145.943 7.77234 146.197 7.29977C146.459 6.8272 146.823 6.46369 147.288 6.20923C147.753 5.95477 148.288 5.82754 148.891 5.82754C149.48 5.82754 150.003 5.95113 150.461 6.19832C150.919 6.44551 151.276 6.79812 151.53 7.25615C151.792 7.71418 151.923 8.24854 151.923 8.85924ZM150.014 8.3685C150.014 8.04861 149.905 7.79415 149.687 7.60512C149.469 7.41609 149.196 7.32158 148.869 7.32158C148.557 7.32158 148.291 7.41246 148.073 7.59422C147.862 7.77597 147.731 8.03407 147.681 8.3685H150.014ZM38.1857 18.424V22.544C38.1857 23.0027 38.0444 23.3707 37.7617 23.648C37.4791 23.92 37.1057 24.056 36.6417 24.056C36.1724 24.056 35.7964 23.9173 35.5137 23.64C35.2311 23.3573 35.0897 22.9733 35.0897 22.488H35.8177C35.8231 22.76 35.8924 22.9813 36.0257 23.152C36.1644 23.3227 36.3697 23.408 36.6417 23.408C36.9137 23.408 37.1164 23.328 37.2497 23.168C37.3831 23.0027 37.4497 22.7947 37.4497 22.544V18.424H38.1857ZM42.9159 22.76H40.4839L40.0359 24H39.2679L41.2839 18.456H42.1239L44.1319 24H43.3639L42.9159 22.76ZM42.7079 22.168L41.6999 19.352L40.6919 22.168H42.7079ZM50.6665 18.464V24H49.9385V19.872L48.0985 24H47.5865L45.7385 19.864V24H45.0105V18.464H45.7945L47.8425 23.04L49.8905 18.464H50.6665ZM52.6292 18.424V24H51.9012V18.424H52.6292ZM54.5979 19.016V20.88H56.6299V21.48H54.5979V23.4H56.8699V24H53.8699V18.416H56.8699V19.016H54.5979ZM65.7603 18.464V24H65.0323V19.872L63.1923 24H62.6803L60.8323 19.864V24H60.1043V18.464H60.8883L62.9363 23.04L64.9843 18.464H65.7603ZM70.2909 22.76H67.8589L67.4109 24H66.6429L68.6589 18.456H69.4989L71.5069 24H70.7389L70.2909 22.76ZM70.0829 22.168L69.0749 19.352L68.0669 22.168H70.0829ZM75.3215 24L73.9935 21.72H73.1135V24H72.3855V18.424H74.1855C74.6069 18.424 74.9615 18.496 75.2495 18.64C75.5429 18.784 75.7615 18.9787 75.9055 19.224C76.0495 19.4693 76.1215 19.7493 76.1215 20.064C76.1215 20.448 76.0095 20.7867 75.7855 21.08C75.5669 21.3733 75.2362 21.568 74.7935 21.664L76.1935 24H75.3215ZM73.1135 21.136H74.1855C74.5802 21.136 74.8762 21.04 75.0735 20.848C75.2709 20.6507 75.3695 20.3893 75.3695 20.064C75.3695 19.7333 75.2709 19.4773 75.0735 19.296C74.8815 19.1147 74.5855 19.024 74.1855 19.024H73.1135V21.136ZM77.9807 18.424V24H77.2527V18.424H77.9807ZM79.9495 19.016V20.88H81.9815V21.48H79.9495V23.4H82.2215V24H79.2215V18.416H82.2215V19.016H79.9495ZM88.2638 18.424V22.544C88.2638 23.0027 88.1225 23.3707 87.8398 23.648C87.5572 23.92 87.1838 24.056 86.7198 24.056C86.2505 24.056 85.8745 23.9173 85.5918 23.64C85.3092 23.3573 85.1678 22.9733 85.1678 22.488H85.8958C85.9012 22.76 85.9705 22.9813 86.1038 23.152C86.2425 23.3227 86.4478 23.408 86.7198 23.408C86.9918 23.408 87.1945 23.328 87.3278 23.168C87.4612 23.0027 87.5278 22.7947 87.5278 22.544V18.424H88.2638ZM92.994 22.76H90.562L90.114 24H89.346L91.362 18.456H92.202L94.21 24H93.442L92.994 22.76ZM92.786 22.168L91.778 19.352L90.77 22.168H92.786ZM98.0247 24L96.6967 21.72H95.8167V24H95.0887V18.424H96.8887C97.31 18.424 97.6647 18.496 97.9527 18.64C98.246 18.784 98.4647 18.9787 98.6087 19.224C98.7527 19.4693 98.8247 19.7493 98.8247 20.064C98.8247 20.448 98.7127 20.7867 98.4887 21.08C98.27 21.3733 97.9393 21.568 97.4967 21.664L98.8967 24H98.0247ZM95.8167 21.136H96.8887C97.2833 21.136 97.5793 21.04 97.7767 20.848C97.974 20.6507 98.0727 20.3893 98.0727 20.064C98.0727 19.7333 97.974 19.4773 97.7767 19.296C97.5847 19.1147 97.2887 19.024 96.8887 19.024H95.8167V21.136ZM105.612 18.464V24H104.884V19.872L103.044 24H102.532L100.684 19.864V24H99.9558V18.464H100.74L102.788 23.04L104.836 18.464H105.612ZM107.574 19.016V20.88H109.606V21.48H107.574V23.4H109.846V24H106.846V18.416H109.846V19.016H107.574ZM113.993 24.848H113.265V17.64H113.993V24.848ZM120.35 18.424V22.544C120.35 23.0027 120.208 23.3707 119.926 23.648C119.643 23.92 119.27 24.056 118.806 24.056C118.336 24.056 117.96 23.9173 117.678 23.64C117.395 23.3573 117.254 22.9733 117.254 22.488H117.982C117.987 22.76 118.056 22.9813 118.19 23.152C118.328 23.3227 118.534 23.408 118.806 23.408C119.078 23.408 119.28 23.328 119.414 23.168C119.547 23.0027 119.614 22.7947 119.614 22.544V18.424H120.35ZM122.512 19.016V20.88H124.544V21.48H122.512V23.4H124.784V24H121.784V18.416H124.784V19.016H122.512ZM126.614 23.408H128.566V24H125.886V18.424H126.614V23.408ZM131.867 24.056C131.349 24.056 130.877 23.936 130.451 23.696C130.024 23.4507 129.685 23.112 129.435 22.68C129.189 22.2427 129.067 21.752 129.067 21.208C129.067 20.664 129.189 20.176 129.435 19.744C129.685 19.3067 130.024 18.968 130.451 18.728C130.877 18.4827 131.349 18.36 131.867 18.36C132.389 18.36 132.864 18.4827 133.291 18.728C133.717 18.968 134.053 19.304 134.299 19.736C134.544 20.168 134.667 20.6587 134.667 21.208C134.667 21.7573 134.544 22.248 134.299 22.68C134.053 23.112 133.717 23.4507 133.291 23.696C132.864 23.936 132.389 24.056 131.867 24.056ZM131.867 23.424C132.256 23.424 132.605 23.3333 132.915 23.152C133.229 22.9707 133.475 22.712 133.651 22.376C133.832 22.04 133.923 21.6507 133.923 21.208C133.923 20.76 133.832 20.3707 133.651 20.04C133.475 19.704 133.232 19.4453 132.923 19.264C132.613 19.0827 132.261 18.992 131.867 18.992C131.472 18.992 131.12 19.0827 130.811 19.264C130.501 19.4453 130.256 19.704 130.075 20.04C129.899 20.3707 129.811 20.76 129.811 21.208C129.811 21.6507 129.899 22.04 130.075 22.376C130.256 22.712 130.501 22.9707 130.811 23.152C131.125 23.3333 131.477 23.424 131.867 23.424ZM143.417 18.464V24H142.689V19.872L140.849 24H140.337L138.489 19.864V24H137.761V18.464H138.545L140.593 23.04L142.641 18.464H143.417ZM145.379 18.424V24H144.651V18.424H145.379ZM149.556 24L148.228 21.72H147.348V24H146.62V18.424H148.42C148.841 18.424 149.196 18.496 149.484 18.64C149.777 18.784 149.996 18.9787 150.14 19.224C150.284 19.4693 150.356 19.7493 150.356 20.064C150.356 20.448 150.244 20.7867 150.02 21.08C149.801 21.3733 149.471 21.568 149.028 21.664L150.428 24H149.556ZM147.348 21.136H148.42C148.815 21.136 149.111 21.04 149.308 20.848C149.505 20.6507 149.604 20.3893 149.604 20.064C149.604 19.7333 149.505 19.4773 149.308 19.296C149.116 19.1147 148.82 19.024 148.42 19.024H147.348V21.136ZM154.783 22.76H152.351L151.903 24H151.135L153.151 18.456H153.991L155.999 24H155.231L154.783 22.76ZM154.575 22.168L153.567 19.352L152.559 22.168H154.575ZM161.262 24H160.534L157.606 19.56V24H156.878V18.416H157.606L160.534 22.848V18.416H161.262V24ZM164.239 18.424C164.847 18.424 165.372 18.5387 165.815 18.768C166.263 18.992 166.604 19.3147 166.839 19.736C167.079 20.1573 167.199 20.6533 167.199 21.224C167.199 21.7947 167.079 22.2907 166.839 22.712C166.604 23.128 166.263 23.448 165.815 23.672C165.372 23.8907 164.847 24 164.239 24H162.503V18.424H164.239ZM164.239 23.4C164.959 23.4 165.508 23.2107 165.887 22.832C166.265 22.448 166.455 21.912 166.455 21.224C166.455 20.5307 166.263 19.9893 165.879 19.6C165.5 19.2107 164.953 19.016 164.239 19.016H163.231V23.4H164.239ZM171.455 22.76H169.023L168.575 24H167.807L169.823 18.456H170.663L172.671 24H171.903L171.455 22.76ZM171.247 22.168L170.239 19.352L169.231 22.168H171.247ZM176.594 24.848H175.866V17.64H176.594V24.848ZM183.439 22.76H181.007L180.559 24H179.791L181.807 18.456H182.647L184.655 24H183.887L183.439 22.76ZM183.231 22.168L182.223 19.352L181.215 22.168H183.231ZM191.19 18.464V24H190.462V19.872L188.622 24H188.11L186.262 19.864V24H185.534V18.464H186.318L188.366 23.04L190.414 18.464H191.19ZM193.153 19.016V20.88H195.185V21.48H193.153V23.4H195.425V24H192.425V18.416H195.425V19.016H193.153ZM199.958 18.424V19.016H198.438V24H197.71V19.016H196.182V18.424H199.958ZM205.15 18.424V24H204.422V21.472H201.582V24H200.854V18.424H201.582V20.872H204.422V18.424H205.15ZM210.297 18.424L208.481 21.896V24H207.753V21.896L205.929 18.424H206.737L208.113 21.248L209.489 18.424H210.297ZM212.833 24.056C212.465 24.056 212.135 23.992 211.841 23.864C211.553 23.7307 211.327 23.5493 211.161 23.32C210.996 23.0853 210.911 22.816 210.905 22.512H211.681C211.708 22.7733 211.815 22.9947 212.001 23.176C212.193 23.352 212.471 23.44 212.833 23.44C213.18 23.44 213.452 23.3547 213.649 23.184C213.852 23.008 213.953 22.784 213.953 22.512C213.953 22.2987 213.895 22.1253 213.777 21.992C213.66 21.8587 213.513 21.7573 213.337 21.688C213.161 21.6187 212.924 21.544 212.625 21.464C212.257 21.368 211.961 21.272 211.737 21.176C211.519 21.08 211.329 20.9307 211.169 20.728C211.015 20.52 210.937 20.2427 210.937 19.896C210.937 19.592 211.015 19.3227 211.169 19.088C211.324 18.8533 211.54 18.672 211.817 18.544C212.1 18.416 212.423 18.352 212.785 18.352C213.308 18.352 213.735 18.4827 214.065 18.744C214.401 19.0053 214.591 19.352 214.633 19.784H213.833C213.807 19.5707 213.695 19.384 213.497 19.224C213.3 19.0587 213.039 18.976 212.713 18.976C212.409 18.976 212.161 19.056 211.969 19.216C211.777 19.3707 211.681 19.5893 211.681 19.872C211.681 20.0747 211.737 20.24 211.849 20.368C211.967 20.496 212.108 20.5947 212.273 20.664C212.444 20.728 212.681 20.8027 212.985 20.888C213.353 20.9893 213.649 21.0907 213.873 21.192C214.097 21.288 214.289 21.44 214.449 21.648C214.609 21.8507 214.689 22.128 214.689 22.48C214.689 22.752 214.617 23.008 214.473 23.248C214.329 23.488 214.116 23.6827 213.833 23.832C213.551 23.9813 213.217 24.056 212.833 24.056ZM219.193 18.424V19.016H217.673V24H216.945V19.016H215.417V18.424H219.193ZM221.949 21.208C221.949 20.664 222.072 20.176 222.317 19.744C222.563 19.3067 222.896 18.9653 223.317 18.72C223.744 18.4747 224.216 18.352 224.733 18.352C225.341 18.352 225.872 18.4987 226.325 18.792C226.779 19.0853 227.109 19.5013 227.317 20.04H226.445C226.291 19.704 226.067 19.4453 225.773 19.264C225.485 19.0827 225.139 18.992 224.733 18.992C224.344 18.992 223.995 19.0827 223.685 19.264C223.376 19.4453 223.133 19.704 222.957 20.04C222.781 20.3707 222.693 20.76 222.693 21.208C222.693 21.6507 222.781 22.04 222.957 22.376C223.133 22.7067 223.376 22.9627 223.685 23.144C223.995 23.3253 224.344 23.416 224.733 23.416C225.139 23.416 225.485 23.328 225.773 23.152C226.067 22.9707 226.291 22.712 226.445 22.376H227.317C227.109 22.9093 226.779 23.3227 226.325 23.616C225.872 23.904 225.341 24.048 224.733 24.048C224.216 24.048 223.744 23.928 223.317 23.688C222.896 23.4427 222.563 23.104 222.317 22.672C222.072 22.24 221.949 21.752 221.949 21.208ZM229.129 23.408H231.081V24H228.401V18.424H229.129V23.408ZM235.15 22.76H232.718L232.27 24H231.502L233.518 18.456H234.358L236.366 24H235.598L235.15 22.76ZM234.942 22.168L233.934 19.352L232.926 22.168H234.942ZM237.957 18.424V21.952C237.957 22.448 238.077 22.816 238.317 23.056C238.562 23.296 238.901 23.416 239.333 23.416C239.76 23.416 240.093 23.296 240.333 23.056C240.578 22.816 240.701 22.448 240.701 21.952V18.424H241.429V21.944C241.429 22.408 241.336 22.8 241.149 23.12C240.962 23.4347 240.709 23.6693 240.389 23.824C240.074 23.9787 239.72 24.056 239.325 24.056C238.93 24.056 238.573 23.9787 238.253 23.824C237.938 23.6693 237.688 23.4347 237.501 23.12C237.32 22.8 237.229 22.408 237.229 21.944V18.424H237.957ZM244.379 18.424C244.987 18.424 245.513 18.5387 245.955 18.768C246.403 18.992 246.745 19.3147 246.979 19.736C247.219 20.1573 247.339 20.6533 247.339 21.224C247.339 21.7947 247.219 22.2907 246.979 22.712C246.745 23.128 246.403 23.448 245.955 23.672C245.513 23.8907 244.987 24 244.379 24H242.643V18.424H244.379ZM244.379 23.4C245.099 23.4 245.649 23.2107 246.027 22.832C246.406 22.448 246.595 21.912 246.595 21.224C246.595 20.5307 246.403 19.9893 246.019 19.6C245.641 19.2107 245.094 19.016 244.379 19.016H243.371V23.4H244.379ZM249.028 18.424V24H248.3V18.424H249.028ZM253.564 22.76H251.132L250.684 24H249.916L251.932 18.456H252.772L254.78 24H254.012L253.564 22.76ZM253.356 22.168L252.348 19.352L251.34 22.168H253.356ZM263.448 18.464V24H262.72V19.872L260.88 24H260.368L258.52 19.864V24H257.792V18.464H258.576L260.624 23.04L262.672 18.464H263.448ZM267.21 24.056C266.693 24.056 266.221 23.936 265.794 23.696C265.368 23.4507 265.029 23.112 264.778 22.68C264.533 22.2427 264.41 21.752 264.41 21.208C264.41 20.664 264.533 20.176 264.778 19.744C265.029 19.3067 265.368 18.968 265.794 18.728C266.221 18.4827 266.693 18.36 267.21 18.36C267.733 18.36 268.208 18.4827 268.634 18.728C269.061 18.968 269.397 19.304 269.642 19.736C269.888 20.168 270.01 20.6587 270.01 21.208C270.01 21.7573 269.888 22.248 269.642 22.68C269.397 23.112 269.061 23.4507 268.634 23.696C268.208 23.936 267.733 24.056 267.21 24.056ZM267.21 23.424C267.6 23.424 267.949 23.3333 268.258 23.152C268.573 22.9707 268.818 22.712 268.994 22.376C269.176 22.04 269.266 21.6507 269.266 21.208C269.266 20.76 269.176 20.3707 268.994 20.04C268.818 19.704 268.576 19.4453 268.266 19.264C267.957 19.0827 267.605 18.992 267.21 18.992C266.816 18.992 266.464 19.0827 266.154 19.264C265.845 19.4453 265.6 19.704 265.418 20.04C265.242 20.3707 265.154 20.76 265.154 21.208C265.154 21.6507 265.242 22.04 265.418 22.376C265.6 22.712 265.845 22.9707 266.154 23.152C266.469 23.3333 266.821 23.424 267.21 23.424ZM273.907 24L272.579 21.72H271.699V24H270.971V18.424H272.771C273.193 18.424 273.547 18.496 273.835 18.64C274.129 18.784 274.347 18.9787 274.491 19.224C274.635 19.4693 274.707 19.7493 274.707 20.064C274.707 20.448 274.595 20.7867 274.371 21.08C274.153 21.3733 273.822 21.568 273.379 21.664L274.779 24H273.907ZM271.699 21.136H272.771C273.166 21.136 273.462 21.04 273.659 20.848C273.857 20.6507 273.955 20.3893 273.955 20.064C273.955 19.7333 273.857 19.4773 273.659 19.296C273.467 19.1147 273.171 19.024 272.771 19.024H271.699V21.136ZM279.135 22.76H276.703L276.255 24H275.487L277.503 18.456H278.343L280.351 24H279.583L279.135 22.76ZM278.927 22.168L277.919 19.352L276.911 22.168H278.927ZM285.613 24H284.885L281.957 19.56V24H281.229V18.416H281.957L284.885 22.848V18.416H285.613V24Z" fill="white"/>
<path d="M158.741 6.80903C158.741 7.25251 158.639 7.65965 158.436 8.03043C158.232 8.39395 157.919 8.68839 157.498 8.91377C157.076 9.13915 156.553 9.25184 155.927 9.25184H154.771V12H152.907V4.3444H155.927C156.538 4.3444 157.054 4.44982 157.476 4.66066C157.898 4.8715 158.214 5.16231 158.425 5.53309C158.636 5.90388 158.741 6.32919 158.741 6.80903ZM155.786 7.7687C156.142 7.7687 156.407 7.68509 156.582 7.51788C156.756 7.35066 156.843 7.11438 156.843 6.80903C156.843 6.50368 156.756 6.26739 156.582 6.10018C156.407 5.93296 156.142 5.84935 155.786 5.84935H154.771V7.7687H155.786ZM161.577 4.3444V12H159.712V4.3444H161.577ZM164.793 10.5605H167.236V12H162.928V4.3444H164.793V10.5605ZM172.891 10.6477H170.034L169.576 12H167.623L170.393 4.3444H172.553L175.323 12H173.349L172.891 10.6477ZM172.411 9.20822L171.462 6.40553L170.524 9.20822H172.411Z" fill="#CDAD59"/>
</svg>
