<svg width="229" height="272" viewBox="0 0 229 272" fill="none" xmlns="http://www.w3.org/2000/svg">
<path d="M21.4688 51C15.7749 51 10.3142 53.6866 6.28805 58.4688C2.26188 63.251 0 69.737 0 76.5V102C0 104.254 0.75396 106.416 2.09602 108.01C3.43807 109.604 5.25829 110.5 7.15625 110.5C12.8501 110.5 18.3108 113.187 22.3369 117.969C26.3631 122.751 28.625 129.237 28.625 136C28.625 142.763 26.3631 149.249 22.3369 154.031C18.3108 158.813 12.8501 161.5 7.15625 161.5C5.25829 161.5 3.43807 162.396 2.09602 163.99C0.75396 165.584 0 167.746 0 170V195.5C0 202.263 2.26188 208.749 6.28805 213.531C10.3142 218.313 15.7749 221 21.4688 221H207.531C213.225 221 218.686 218.313 222.712 213.531C226.738 208.749 229 202.263 229 195.5V170C229 167.746 228.246 165.584 226.904 163.99C225.562 162.396 223.742 161.5 221.844 161.5C216.15 161.5 210.689 158.813 206.663 154.031C202.637 149.249 200.375 142.763 200.375 136C200.375 129.237 202.637 122.751 206.663 117.969C210.689 113.187 216.15 110.5 221.844 110.5C223.742 110.5 225.562 109.604 226.904 108.01C228.246 106.416 229 104.254 229 102V76.5C229 69.737 226.738 63.251 222.712 58.4688C218.686 53.6866 213.225 51 207.531 51H21.4688Z" fill="white"/>
</svg>
